<?xml version="1.0" standalone="no"?>
<!DOCTYPE svg PUBLIC "-//W3C//DTD SVG 20010904//EN"
 "http://www.w3.org/TR/2001/REC-SVG-20010904/DTD/svg10.dtd">
<svg version="1.0" xmlns="http://www.w3.org/2000/svg"
 width="1200.000000pt" height="1200.000000pt" viewBox="0 0 1200.000000 1200.000000"
 preserveAspectRatio="xMidYMid meet">
<metadata>
Created by potrace 1.14, written by Peter Selinger 2001-2017
</metadata>
<g transform="translate(0.000000,1200.000000) scale(0.100000,-0.100000)"
fill="#000000" stroke="none">
<path d="M8875 9669 c-27 -10 -60 -18 -72 -19 -12 0 -26 -6 -30 -14 -5 -8 -19
-19 -33 -25 -18 -7 -20 -10 -7 -10 21 -1 22 -19 2 -42 -14 -15 -14 -18 0 -33
9 -9 15 -21 13 -28 -4 -11 -116 -47 -149 -48 -27 0 -62 37 -56 60 8 30 -22 26
-64 -9 -19 -16 -53 -34 -75 -40 -23 -6 -51 -20 -64 -31 -13 -11 -31 -20 -40
-20 -10 0 -50 -19 -89 -42 -144 -85 -167 -98 -236 -134 -38 -20 -90 -53 -115
-74 -25 -21 -56 -43 -70 -50 -14 -7 -50 -29 -80 -49 -76 -50 -220 -111 -240
-101 -16 9 -110 28 -175 36 -58 7 -115 23 -140 40 -25 16 -94 35 -202 54 -40
7 -73 16 -73 20 0 10 -180 66 -244 76 -22 3 -50 10 -63 15 -13 5 -23 7 -23 4
0 -2 -15 1 -32 6 -33 9 -71 4 -65 -9 2 -4 -4 -15 -14 -24 -17 -16 -20 -14 -56
23 -38 40 -58 45 -104 25 -11 -5 -24 1 -39 16 -19 21 -29 23 -105 21 -47 -2
-87 2 -90 7 -9 15 -98 12 -120 -4 -23 -16 -14 -46 15 -46 11 0 20 -4 20 -10 0
-5 6 -10 14 -10 9 0 12 -7 9 -20 -3 -11 0 -20 6 -20 6 0 11 -4 11 -10 0 -14
-27 -13 -53 2 -12 6 -29 13 -37 14 -8 1 -22 4 -30 8 -18 7 -45 -43 -31 -57 5
-5 7 -15 4 -22 -2 -8 6 -21 20 -29 21 -14 164 -50 307 -77 25 -4 70 -13 100
-18 30 -6 82 -16 115 -22 53 -9 145 -31 256 -60 20 -5 54 -9 76 -9 22 0 43 -3
47 -7 10 -10 73 -31 161 -53 44 -11 89 -24 100 -29 19 -8 49 -16 148 -42 21
-5 45 -13 55 -18 60 -32 230 -73 344 -82 67 -5 143 -16 168 -24 25 -7 59 -16
75 -20 30 -6 30 -6 10 12 -19 18 -80 41 -149 57 -39 10 -24 21 24 17 35 -2
107 22 120 40 7 10 88 28 95 21 3 -3 5 6 5 20 0 20 -7 29 -31 37 -26 9 -29 14
-24 33 7 22 44 68 90 110 43 41 157 109 290 174 77 38 142 72 145 75 15 18
116 60 158 65 26 3 63 12 82 19 61 22 246 28 320 9 36 -9 100 -18 142 -21 71
-4 77 -3 88 18 7 12 27 42 46 66 42 55 46 102 9 138 -25 26 -45 32 -45 15 0
-16 -28 -12 -38 6 -5 10 -29 18 -63 22 -52 7 -54 8 -57 40 -4 35 11 62 34 62
8 0 14 -6 14 -14 0 -16 37 -46 57 -46 21 0 15 58 -7 80 -21 21 -70 28 -70 10
0 -12 -47 -13 -52 -1 -7 18 -93 18 -143 0z m115 -43 c0 -69 -68 -123 -138
-110 -21 4 -45 8 -56 10 -29 5 -30 10 -16 59 11 40 16 46 34 40 76 -24 108
-21 129 13 4 6 17 12 27 12 14 0 20 -7 20 -24z m-430 -321 c-7 -8 -19 -15 -26
-15 -8 0 -14 7 -14 15 0 10 10 15 26 15 22 0 25 -2 14 -15z"/>
<path d="M8623 9573 c-48 -27 -53 -39 -22 -48 22 -7 98 37 107 63 6 20 -39 12
-85 -15z"/>
<path d="M4225 9348 c-16 -4 -59 -10 -94 -12 -70 -5 -84 -18 -79 -75 2 -20 -1
-26 -17 -26 -11 0 -24 -10 -30 -22 -7 -17 -21 -24 -55 -28 -25 -4 -58 -11 -73
-17 -52 -20 -106 -13 -133 16 -22 23 -32 26 -93 26 -49 0 -72 -4 -81 -15 -7
-8 -25 -15 -41 -15 -16 0 -29 -4 -29 -8 0 -15 -34 -47 -62 -59 -43 -19 -177
-63 -186 -61 -15 4 -72 -14 -72 -23 0 -5 -5 -9 -11 -9 -6 0 -27 -13 -46 -30
-18 -16 -38 -30 -43 -30 -6 0 -10 -6 -10 -14 0 -8 -7 -16 -15 -20 -8 -3 -15
-11 -15 -17 0 -7 -8 -18 -17 -25 -15 -11 -16 -16 -5 -33 17 -28 15 -51 -4 -51
-9 0 -34 -15 -57 -33 -33 -26 -48 -32 -67 -27 -14 4 -24 13 -24 22 1 10 -4 14
-12 11 -16 -6 -19 -23 -4 -23 6 0 10 -7 10 -15 0 -8 -7 -15 -15 -15 -8 0 -15
-4 -15 -8 0 -5 -11 -14 -24 -21 -13 -7 -32 -28 -42 -46 -20 -34 -124 -125
-144 -125 -6 0 -17 -15 -25 -34 -8 -18 -30 -47 -50 -64 -19 -17 -35 -36 -35
-42 0 -5 -16 -27 -35 -49 -19 -21 -35 -42 -35 -47 0 -5 -11 -22 -25 -38 -14
-16 -25 -35 -25 -41 0 -7 -11 -28 -24 -48 -13 -19 -27 -49 -31 -66 -4 -17 -10
-31 -14 -31 -5 0 -30 -44 -56 -97 -27 -54 -56 -104 -66 -111 -10 -6 -20 -26
-24 -42 -4 -17 -10 -30 -15 -30 -18 0 -64 -96 -66 -140 -3 -62 -19 -100 -43
-100 -11 0 -28 -15 -41 -36 -13 -19 -33 -39 -45 -44 -12 -5 -30 -25 -39 -45
-18 -38 -62 -106 -74 -115 -11 -8 -32 -59 -32 -77 0 -9 -7 -24 -15 -33 -16
-18 -56 -156 -47 -165 3 -2 -2 -13 -10 -22 -9 -10 -18 -43 -22 -73 -8 -65 -25
-149 -36 -170 -4 -8 -8 -44 -9 -79 -1 -36 -6 -70 -10 -75 -5 -6 -12 -31 -16
-56 -3 -25 -13 -65 -20 -90 -46 -148 -55 -229 -60 -527 -4 -228 -2 -294 8
-305 7 -7 13 -33 13 -58 0 -45 28 -181 65 -315 19 -67 31 -99 50 -137 5 -10 9
-29 9 -43 0 -13 13 -65 30 -115 16 -50 30 -107 30 -128 0 -21 7 -61 15 -88 8
-27 21 -87 30 -134 23 -120 22 -119 41 -180 9 -30 27 -107 40 -170 27 -133 50
-217 62 -234 5 -6 12 -44 14 -84 4 -47 11 -77 20 -85 8 -7 20 -26 27 -43 7
-17 23 -36 36 -42 14 -6 34 -34 49 -69 15 -32 32 -67 38 -78 30 -52 40 -79 45
-118 3 -23 17 -64 31 -92 14 -27 27 -68 29 -90 3 -22 8 -42 13 -45 4 -3 11
-22 15 -43 4 -21 13 -37 21 -37 8 0 14 -7 14 -15 0 -8 9 -15 20 -15 40 0 55
-75 18 -89 l-21 -8 21 -21 c12 -12 22 -29 22 -37 0 -8 5 -15 10 -15 6 0 10 -9
10 -20 0 -11 5 -20 12 -20 6 0 2 -10 -10 -23 -26 -27 -28 -70 -7 -121 11 -26
21 -36 38 -36 12 0 28 -9 35 -20 7 -11 18 -20 26 -20 7 0 21 -16 32 -35 10
-19 22 -35 25 -35 4 0 16 -19 27 -42 11 -24 35 -59 54 -78 18 -19 49 -56 67
-82 19 -27 40 -48 47 -48 17 0 63 -56 70 -85 3 -14 13 -27 22 -30 10 -3 28
-22 42 -42 14 -20 37 -49 51 -64 35 -37 89 -119 89 -135 0 -7 4 -14 9 -16 13
-5 70 -104 77 -136 4 -15 16 -33 26 -40 11 -8 18 -23 16 -36 -3 -26 22 -81 57
-120 31 -37 33 -79 3 -100 -12 -9 -18 -16 -13 -16 5 0 2 -6 -7 -13 -9 -6 -19
-34 -22 -62 l-6 -50 57 -52 c80 -73 174 -133 268 -172 44 -18 109 -46 145 -62
36 -17 90 -36 120 -44 30 -7 80 -21 110 -30 210 -63 403 -92 810 -119 286 -20
435 -20 585 0 66 8 170 19 230 24 61 5 158 14 218 20 59 5 153 14 210 20 56 5
185 19 287 30 102 12 223 25 270 30 122 13 361 60 397 78 10 5 33 12 52 16 19
3 42 12 50 20 9 7 40 22 70 32 29 10 56 25 58 31 3 7 9 13 13 13 5 0 22 12 38
28 50 45 91 73 155 107 34 17 109 63 167 101 58 38 110 71 115 73 6 2 30 21
55 41 25 20 72 54 105 75 33 21 78 53 100 72 44 38 46 39 95 73 19 14 41 31
49 38 7 7 26 21 40 30 14 9 31 20 36 24 11 9 123 99 164 133 14 11 41 37 60
59 20 21 53 56 74 77 20 22 37 41 37 44 0 3 17 23 38 45 20 21 48 51 62 65 40
42 64 62 79 67 8 2 20 20 27 39 6 19 17 33 23 31 10 -2 15 11 12 30 0 4 13 15
29 23 17 9 30 24 30 34 0 10 6 21 14 24 8 3 24 27 37 52 13 26 36 53 51 61 15
8 34 27 43 44 8 16 23 35 32 42 17 13 36 38 50 66 3 8 17 25 29 38 13 12 24
28 24 34 0 5 7 10 15 10 8 0 17 11 20 25 3 14 7 36 10 49 3 13 13 26 23 28 10
3 31 32 47 64 17 32 33 61 36 64 3 3 9 17 13 33 3 15 11 27 16 27 5 0 17 17
27 37 9 21 20 40 24 43 11 9 49 102 49 121 0 11 9 28 21 40 11 11 27 46 35 77
8 31 22 67 30 79 7 12 14 36 14 53 0 23 4 30 19 30 16 0 22 11 31 56 7 31 19
69 29 84 57 97 71 125 71 147 0 16 4 22 12 17 7 -5 9 -2 6 7 -3 8 5 33 18 55
26 43 30 75 12 103 -9 15 -7 25 10 53 12 20 22 47 22 62 0 29 30 62 87 97 18
11 34 25 34 30 1 5 2 12 3 17 1 4 6 36 10 71 6 47 15 71 32 88 13 13 24 29 24
36 0 7 10 28 22 47 12 19 28 51 35 70 12 33 27 125 23 144 -1 5 3 12 9 15 6 4
16 42 22 84 6 42 15 77 20 77 5 0 9 7 9 16 0 27 45 145 86 225 45 89 78 194
107 349 19 100 22 148 21 365 0 186 -5 275 -17 348 -9 53 -24 141 -33 195 -13
81 -31 170 -49 242 -7 27 -55 161 -69 194 -24 54 -94 198 -137 280 -37 73 -39
80 -23 97 15 17 14 21 -7 58 -22 40 -44 52 -51 29 -4 -12 -22 10 -131 160 -62
86 -202 232 -223 232 -7 0 -33 20 -58 45 -26 25 -52 45 -57 45 -23 0 -69 -42
-69 -63 0 -12 -4 -17 -8 -12 -4 6 -22 11 -41 12 -43 2 -53 13 -60 65 -4 29
-11 43 -21 43 -9 0 -15 10 -15 24 0 15 -8 27 -21 32 -12 4 -24 14 -27 23 -3 8
-21 18 -39 21 -21 4 -37 15 -43 28 -6 12 -20 23 -32 25 -19 3 -23 -1 -23 -26
0 -26 -4 -30 -37 -36 -78 -12 -116 -7 -163 24 -25 16 -51 30 -57 30 -7 0 -13
7 -13 15 0 9 -6 18 -14 21 -29 11 -5 53 50 84 35 19 59 41 65 58 9 24 7 30
-21 53 -17 15 -59 35 -93 44 -34 9 -66 21 -72 25 -5 4 -26 10 -45 13 -19 3
-53 10 -75 16 -22 7 -71 16 -110 21 -106 14 -245 37 -295 49 -55 13 -110 14
-110 2 0 -9 24 -22 45 -26 6 -1 27 -9 47 -18 21 -9 44 -17 52 -17 7 0 28 -13
46 -30 21 -19 44 -30 71 -33 45 -5 46 -5 51 -32 2 -14 -3 -21 -19 -23 -16 -2
-23 2 -23 12 0 18 5 17 -110 20 -47 2 -102 9 -123 16 -33 13 -41 12 -66 -3
-19 -11 -32 -14 -36 -7 -9 15 -67 12 -89 -5 -30 -22 -55 -18 -93 15 -18 17
-43 30 -54 30 -11 0 -33 7 -49 15 -17 9 -56 17 -87 19 -63 5 -119 21 -144 42
-8 8 -26 14 -39 14 -13 0 -46 11 -74 25 -28 13 -80 32 -116 41 -36 9 -87 26
-115 39 -71 31 -180 61 -275 76 -30 4 -73 12 -95 17 -135 33 -202 45 -295 52
-58 5 -115 11 -127 15 -45 14 -19 35 43 35 45 0 43 11 -7 39 -32 18 -66 25
-162 33 -67 5 -140 7 -162 4 -22 -4 -89 -7 -148 -9 -100 -2 -109 0 -122 19
-11 17 -28 22 -91 28 -52 5 -87 14 -105 27 -16 11 -44 19 -68 19 -23 0 -41 5
-41 10 0 6 -16 10 -35 10 -19 0 -54 6 -77 14 -24 8 -79 22 -123 30 -44 9 -84
21 -89 26 -6 6 -20 10 -33 10 -12 0 -45 8 -71 18 -27 11 -63 17 -80 14 -42 -6
-82 5 -82 22 0 8 25 24 55 37 30 12 55 28 55 35 0 17 -42 25 -88 18 -28 -4
-47 -1 -72 14 -22 13 -57 22 -93 23 -47 2 -60 -1 -77 -19 -17 -18 -24 -20 -50
-11 -16 6 -30 15 -30 20 0 5 -13 9 -28 9 -15 0 -32 4 -37 9 -17 15 -99 28
-130 19z m715 -302 c0 -11 -19 -15 -25 -6 -3 5 1 10 9 10 9 0 16 -2 16 -4z
m920 -190 c0 -18 -17 -29 -30 -21 -8 5 -7 11 1 21 15 18 29 18 29 0z m-2082
-18 c9 -9 8 -16 -5 -30 -20 -22 -52 -24 -59 -3 -13 33 38 59 64 33z m630 -40
c-3 -7 -14 -18 -26 -24 -38 -19 -12 -33 43 -23 33 6 51 6 53 -1 2 -5 10 -10
18 -10 8 0 22 -4 32 -9 34 -17 182 -41 204 -32 16 6 38 3 71 -10 28 -11 58
-17 73 -13 14 4 33 0 47 -9 33 -22 61 -24 81 -8 16 13 20 11 43 -17 13 -18 31
-32 39 -32 16 0 18 -14 4 -40 -19 -36 49 -57 180 -55 52 1 104 -2 115 -5 11
-5 32 -2 48 6 24 13 31 12 59 -2 29 -15 60 -21 110 -23 12 -1 15 -6 11 -18 -6
-16 -5 -16 10 -4 14 11 18 11 24 -5 4 -10 2 -19 -5 -22 -17 -5 -15 -39 3 -46
20 -7 19 -45 -1 -67 -17 -19 -12 -55 6 -44 16 10 22 -19 13 -56 -8 -30 -14
-35 -54 -42 -55 -10 -89 -26 -89 -43 0 -7 -8 -19 -18 -26 -10 -7 -22 -25 -25
-39 -4 -14 -17 -37 -29 -51 -13 -15 -34 -45 -47 -67 -16 -26 -36 -44 -57 -51
-42 -14 -131 -104 -139 -140 -4 -17 -11 -32 -16 -35 -5 -4 -9 -19 -9 -35 0
-35 -26 -52 -68 -44 -33 7 -42 -2 -51 -50 -6 -27 -14 -33 -57 -47 -28 -9 -84
-20 -125 -23 -97 -8 -188 -36 -195 -59 -8 -25 -48 -49 -70 -41 -10 4 -29 19
-40 33 -12 14 -30 26 -40 26 -13 0 -20 9 -22 29 -2 18 -11 30 -24 34 -11 2
-24 16 -29 29 -7 20 -12 23 -23 13 -12 -9 -20 -8 -39 5 -19 12 -45 15 -104 14
-55 -2 -105 4 -171 21 -76 19 -97 21 -118 11 -18 -8 -30 -8 -39 -1 -13 11 -72
3 -81 -11 -9 -14 -24 -10 -24 6 0 9 -8 18 -17 22 -10 3 -26 15 -35 27 -17 21
-17 21 -32 1 -9 -11 -16 -14 -16 -7 0 21 -39 52 -65 52 -52 0 -147 129 -125
170 7 14 7 20 0 20 -5 0 -10 10 -10 23 0 12 -9 41 -20 65 -20 44 -18 72 6 72
20 0 17 21 -4 27 -10 2 -23 16 -30 31 -19 43 -77 102 -100 102 -28 0 -35 14
-45 85 -4 33 -10 76 -13 95 -11 78 -10 84 19 98 15 7 27 17 27 22 0 10 96 80
110 80 5 0 14 8 19 19 6 11 26 21 50 25 30 5 39 10 35 21 -4 8 -1 15 6 15 7 0
27 7 45 16 18 8 46 14 62 12 24 -3 28 -8 31 -39 3 -32 6 -36 26 -32 13 3 34 0
46 -7 17 -9 28 -8 56 5 19 9 34 21 34 28 0 23 89 67 158 77 57 9 161 9 197 0
25 -6 53 2 71 19 21 22 68 28 62 9z m-1253 -138 c-5 -8 -11 -8 -17 -2 -6 6 -7
16 -3 22 5 8 11 8 17 2 6 -6 7 -16 3 -22z m3740 20 c3 -5 -1 -10 -9 -10 -9 0
-16 5 -16 10 0 6 4 10 9 10 6 0 13 -4 16 -10z m-1207 -262 c-7 -19 -38 -22
-38 -4 0 10 9 16 21 16 12 0 19 -5 17 -12z m1770 -74 c17 -5 15 -39 -4 -55
-12 -10 -19 -10 -32 -1 -10 7 -29 20 -44 30 -44 27 -36 43 20 36 26 -3 53 -7
60 -10z m1045 -82 c15 -14 27 -34 27 -44 0 -31 -45 -20 -95 24 -19 17 -22 26
-16 57 3 11 60 -14 84 -37z m-983 -2 c0 -5 -7 -7 -15 -4 -8 4 -15 8 -15 10 0
2 7 4 15 4 8 0 15 -4 15 -10z m-4860 -49 c0 -25 -11 -33 -26 -20 -10 8 -10 15
-2 29 14 22 28 17 28 -9z m515 -221 c12 -19 -6 -50 -28 -50 -12 0 -36 -9 -54
-19 -26 -17 -34 -18 -49 -6 -17 12 -15 14 20 29 21 9 42 16 47 16 5 0 13 9 19
20 11 21 35 27 45 10z m6139 -45 c9 -14 23 -25 31 -25 8 0 15 -7 15 -15 0 -8
-6 -15 -14 -15 -7 0 -19 7 -26 15 -7 8 -23 15 -35 15 -13 0 -26 7 -29 16 -15
40 33 47 58 9z m-2554 -20 c16 -20 6 -45 -19 -45 -27 0 -49 39 -30 51 20 13
35 11 49 -6z m1588 -67 c17 -15 15 -45 -4 -52 -23 -9 -54 21 -54 51 0 21 3 23
23 17 12 -3 28 -11 35 -16z m-688 -67 c0 -5 11 -11 23 -15 31 -7 31 -36 0 -36
-27 0 -41 -26 -25 -42 8 -8 27 -8 67 2 61 15 69 15 104 4 20 -6 23 -4 18 9 -5
13 -1 17 17 17 13 0 26 -7 30 -15 3 -8 15 -15 26 -15 11 0 20 -4 20 -10 0 -5
9 -10 20 -10 11 0 20 4 20 9 0 10 76 -7 112 -25 15 -8 40 -13 56 -12 16 1 40
-5 53 -13 28 -18 128 -54 179 -64 44 -9 58 -20 76 -63 12 -28 17 -32 29 -22
20 17 37 3 33 -28 -2 -21 4 -29 37 -46 21 -12 46 -34 54 -51 8 -16 18 -38 23
-47 14 -30 10 -98 -6 -98 -7 0 -16 -8 -19 -18 -2 -12 -17 -22 -36 -25 -35 -7
-34 -27 1 -27 17 0 19 -4 13 -22 -10 -31 -10 -57 -1 -95 7 -31 6 -33 -19 -33
-14 0 -35 -5 -47 -11 -18 -10 -19 -17 -13 -70 5 -40 3 -64 -4 -73 -16 -19 2
-29 37 -22 22 5 29 2 40 -21 17 -37 15 -66 -5 -84 -10 -8 -26 -26 -36 -39 -17
-23 -18 -23 -14 -4 3 12 1 28 -4 35 -8 12 -11 12 -18 -1 -5 -8 -7 -18 -4 -23
3 -5 -7 -20 -23 -34 -22 -18 -29 -34 -30 -66 -1 -23 -8 -55 -15 -71 -11 -23
-11 -30 -1 -34 13 -4 17 -42 4 -42 -4 0 -14 6 -21 13 -10 10 -19 3 -48 -31
-20 -24 -47 -48 -61 -53 -23 -9 -24 -10 -8 -34 16 -24 14 -45 -3 -45 -5 0 -11
9 -14 20 -3 12 -14 20 -27 20 -11 0 -19 -4 -16 -9 3 -5 -1 -12 -10 -15 -19 -7
-8 -28 13 -24 9 2 18 -2 20 -9 3 -8 -8 -10 -34 -6 -35 4 -106 -5 -159 -22 -16
-5 -23 -2 -26 13 -3 11 -15 25 -26 31 -18 10 -24 7 -39 -16 -10 -16 -24 -33
-32 -39 -8 -6 -11 -16 -6 -24 11 -18 -13 -30 -60 -29 -29 0 -35 3 -21 8 18 7
18 8 2 14 -26 10 -36 8 -36 -7 0 -8 -11 -17 -25 -20 -15 -4 -25 -13 -25 -25 0
-34 -89 -36 -91 -2 -1 13 -2 13 -6 -2 -3 -10 -16 -22 -29 -27 -13 -5 -30 -22
-37 -37 -11 -26 -22 -41 -65 -86 -16 -18 -17 -18 -32 0 -8 11 -23 22 -32 26
-25 9 -22 34 5 41 18 5 19 8 7 16 -23 15 -52 1 -88 -40 -31 -37 -44 -42 -69
-27 -16 10 -17 48 -2 79 8 18 6 31 -5 53 -9 17 -12 33 -7 39 5 7 2 50 -7 102
-19 104 -58 174 -97 174 -12 0 -29 8 -37 18 -25 28 -68 122 -68 147 0 42 -10
55 -45 55 -38 0 -48 11 -49 54 -1 38 -22 45 -37 12 -7 -14 -16 -26 -20 -26
-13 0 -20 33 -9 44 20 20 9 42 -30 60 -27 12 -40 24 -40 37 0 14 -7 19 -29 19
-17 0 -36 8 -43 18 -7 9 -33 26 -58 37 -54 23 -99 56 -99 72 -1 7 -10 18 -21
25 -11 7 -20 23 -20 36 0 13 -5 43 -11 68 -11 42 -10 46 15 69 14 13 26 30 26
38 0 8 7 20 15 27 18 15 20 107 4 160 -5 19 -12 48 -14 64 -3 16 -10 33 -16
37 -17 10 -3 39 19 39 11 0 27 10 35 23 l16 22 0 -25 c1 -14 -6 -36 -15 -49
-15 -21 -15 -24 -1 -38 14 -14 19 -12 47 21 24 27 40 36 64 36 17 0 37 4 45 9
18 12 41 3 41 -15 0 -21 46 -47 70 -39 11 3 20 12 20 19 0 6 5 17 11 23 14 14
53 -3 83 -36 24 -26 42 -26 84 -1 18 11 41 20 51 20 12 0 21 9 25 25 8 31 45
35 53 5 7 -28 30 -25 37 5 4 14 12 25 20 25 7 0 19 7 26 15 10 12 28 15 72 12
46 -3 64 0 81 13 19 15 20 21 9 44 -10 22 -9 27 8 36 14 7 26 8 39 0 29 -15
31 -13 31 21 0 25 -4 30 -17 26 -32 -8 -38 -9 -56 -8 -10 0 -17 7 -15 14 3 7
30 14 64 18 32 3 65 6 72 7 6 1 12 -2 12 -7z m-2340 -60 c0 -6 -4 -13 -10 -16
-5 -3 -10 1 -10 9 0 9 5 16 10 16 6 0 10 -4 10 -9z m1560 -46 c42 -22 41 -58
-2 -76 -24 -10 -33 -10 -36 -1 -2 7 -15 12 -28 12 -13 0 -24 5 -24 11 0 6 12
9 28 7 25 -3 27 0 26 30 -2 37 -2 37 36 17z m-3085 -45 c3 -5 1 -10 -4 -10 -6
0 -11 5 -11 10 0 6 2 10 4 10 3 0 8 -4 11 -10z m-80 -30 c3 -5 -1 -10 -9 -10
-9 0 -16 5 -16 10 0 6 4 10 9 10 6 0 13 -4 16 -10z m325 -25 c135 -16 143 -18
269 -64 85 -31 120 -57 220 -161 94 -97 170 -214 171 -261 0 -9 9 -27 19 -41
11 -13 23 -38 27 -54 4 -16 12 -36 19 -44 12 -14 35 -62 130 -265 39 -83 71
-135 84 -135 4 0 32 19 63 43 31 24 91 58 134 77 44 18 97 50 119 70 145 132
304 200 587 250 145 26 264 28 338 5 30 -9 71 -19 90 -21 66 -9 78 -14 119
-48 22 -19 62 -44 88 -57 26 -12 62 -33 78 -45 17 -13 60 -37 95 -54 36 -17
83 -45 105 -60 22 -16 47 -29 56 -30 18 0 125 -96 256 -228 72 -73 83 -88 89
-129 4 -26 17 -70 30 -97 12 -28 25 -73 29 -101 3 -27 11 -71 17 -97 9 -35 8
-60 -1 -100 -10 -46 -9 -60 5 -93 10 -25 14 -51 9 -74 -3 -20 -9 -77 -13 -127
-5 -69 -12 -97 -26 -113 -10 -11 -20 -35 -22 -52 -2 -17 -11 -37 -19 -43 -17
-13 -65 -118 -65 -144 0 -9 -19 -51 -41 -92 -22 -41 -58 -117 -80 -169 -22
-52 -62 -137 -89 -188 -28 -51 -50 -101 -50 -111 0 -10 -21 -41 -48 -68 -26
-27 -52 -61 -58 -74 -6 -14 -17 -37 -24 -52 -7 -15 -41 -56 -74 -91 -34 -35
-68 -72 -77 -83 -9 -10 -27 -28 -41 -40 -14 -12 -31 -30 -39 -41 -8 -11 -26
-28 -41 -37 -16 -10 -28 -26 -28 -35 0 -16 -49 -61 -66 -61 -16 0 -54 -44 -54
-62 0 -23 -44 -62 -78 -68 -20 -4 -30 -14 -38 -38 -12 -39 -24 -51 -53 -57
-22 -4 -61 -40 -61 -55 0 -15 -111 -80 -135 -80 -17 0 -43 -17 -77 -50 -28
-27 -70 -59 -94 -70 -23 -12 -53 -32 -67 -45 -13 -14 -40 -31 -59 -39 -31 -13
-76 -50 -155 -127 -12 -11 -40 -23 -63 -26 -30 -4 -52 -17 -83 -47 -23 -22
-46 -40 -51 -38 -19 6 -142 -43 -171 -69 -16 -14 -45 -29 -62 -32 -18 -4 -62
-20 -97 -37 -36 -16 -67 -30 -70 -30 -8 0 -98 -61 -142 -97 -23 -18 -62 -40
-88 -49 -25 -9 -46 -20 -46 -24 0 -5 -21 -16 -47 -26 -27 -10 -61 -26 -78 -36
-37 -22 -84 -23 -91 -3 -4 8 -12 15 -20 15 -8 0 -14 5 -14 11 0 6 -11 24 -25
41 -14 16 -25 36 -25 44 0 8 -44 59 -97 113 -87 86 -128 131 -190 207 -10 12
-29 40 -43 63 -36 59 -156 220 -196 261 -19 20 -34 39 -34 43 0 4 -9 18 -21
30 -11 12 -29 38 -40 57 -10 19 -32 53 -48 75 -16 22 -61 92 -101 155 -39 63
-89 144 -112 180 -22 36 -56 94 -75 130 -20 36 -42 72 -49 81 -8 8 -14 18 -14
22 0 3 -17 32 -38 64 -21 32 -49 78 -63 103 -13 25 -34 60 -46 79 -13 18 -23
41 -23 51 0 9 -11 40 -25 68 -14 29 -25 54 -25 57 0 3 -11 22 -24 43 -13 21
-27 53 -31 72 -4 19 -25 72 -46 116 -21 45 -39 93 -39 106 0 35 -19 85 -78
210 -73 154 -125 320 -142 458 -4 36 -11 90 -15 120 -4 36 -1 79 8 124 11 50
12 75 5 92 -8 16 -8 31 0 51 6 15 14 55 18 88 3 33 10 67 15 76 5 9 22 68 39
130 17 63 39 125 48 139 9 14 28 48 43 76 28 52 70 119 89 141 6 7 14 23 19
36 15 39 78 130 116 167 19 19 35 37 35 42 0 4 32 33 71 64 39 31 90 76 113
99 22 23 60 52 83 64 23 11 47 30 53 41 16 29 159 100 202 100 9 0 21 8 27 18
8 13 28 18 103 23 51 3 95 6 98 7 3 1 61 -5 130 -13z m2076 -506 c10 -16 -9
-29 -34 -23 -35 10 -26 25 20 33 4 0 10 -4 14 -10z m298 -54 c3 -8 1 -15 -4
-15 -6 0 -10 7 -10 15 0 8 2 15 4 15 2 0 6 -7 10 -15z m2462 -62 c3 -17 -1
-23 -15 -23 -17 0 -31 18 -31 42 0 20 43 3 46 -19z m188 5 c14 -52 6 -123 -19
-173 -18 -34 -24 -58 -19 -77 5 -27 4 -28 -30 -28 -31 0 -36 3 -36 23 0 33
-61 64 -95 49 -26 -12 -36 1 -11 15 19 11 31 59 17 67 -17 11 -14 86 3 86 8 0
16 7 20 15 6 17 42 20 51 5 11 -18 51 -10 75 15 29 31 36 31 44 3z m-2356 -48
c6 0 12 -3 14 -7 2 -5 30 -21 63 -38 33 -17 61 -38 63 -47 5 -25 -15 -22 -50
7 -16 14 -37 25 -46 25 -10 0 -44 22 -77 50 -33 27 -67 50 -75 50 -13 0 -13 2
-1 9 10 7 28 1 57 -20 23 -16 47 -29 52 -29z m192 -126 c0 -2 -7 -4 -15 -4 -8
0 -15 4 -15 10 0 5 7 7 15 4 8 -4 15 -8 15 -10z m2260 -119 c11 -10 26 -15 34
-12 15 6 30 -18 20 -34 -3 -5 -14 -9 -25 -9 -18 0 -18 -2 -5 -34 14 -33 13
-35 -7 -40 -12 -3 -32 -20 -44 -38 -13 -18 -23 -27 -23 -20 0 7 -8 12 -17 10
-14 -2 -17 3 -15 25 2 18 -1 26 -8 22 -10 -6 -21 2 -48 37 -11 13 -10 22 1 51
26 60 44 75 84 67 19 -5 43 -16 53 -25z m-162 -91 c-10 -10 -28 6 -28 24 0 15
1 15 17 -1 9 -9 14 -19 11 -23z m264 -49 c9 -20 9 -28 -1 -38 -10 -9 -15 -8
-27 7 -8 11 -14 28 -14 38 0 27 29 22 42 -7z m-1232 -304 c0 -10 -42 -23 -49
-15 -7 6 20 24 37 24 6 0 12 -4 12 -9z m1228 -53 c17 -17 15 -73 -4 -89 -37
-31 -69 31 -40 77 18 27 27 29 44 12z m-324 -89 c-3 -6 1 -16 9 -22 39 -30 15
-111 -36 -123 -49 -10 -65 23 -48 101 5 26 10 30 34 27 15 -2 27 0 26 5 -3 20
2 34 11 28 6 -4 8 -11 4 -16z m-114 -55 c0 -8 -5 -12 -10 -9 -6 4 -8 11 -5 16
9 14 15 11 15 -7z m-495 -84 c34 -13 49 -53 35 -96 -10 -28 -17 -34 -40 -34
-31 0 -70 39 -70 70 0 15 35 70 45 70 2 0 15 -4 30 -10z m-825 -94 c0 -8 -4
-18 -10 -21 -5 -3 -10 3 -10 14 0 12 5 21 10 21 6 0 10 -6 10 -14z m244 -38
c6 -4 2 -16 -8 -27 -11 -12 -16 -29 -13 -41 7 -27 -31 -53 -70 -48 -24 3 -28
8 -29 35 -1 18 -6 38 -12 46 -16 19 11 55 46 59 26 3 68 -8 86 -24z m1603
-314 c1 -5 -2 -16 -7 -24 -9 -13 -11 -13 -19 -1 -5 8 -7 20 -4 28 6 15 25 13
30 -3z m-179 -136 c-2 -13 -7 -23 -13 -23 -5 0 -11 10 -13 23 -2 15 2 22 13
22 11 0 15 -7 13 -22z m-415 -102 c-4 -49 -55 -63 -61 -18 -6 38 5 54 35 50
24 -3 28 -7 26 -32z m-733 -155 c20 -16 22 -21 11 -35 -15 -18 -56 -21 -66 -5
-4 5 0 18 9 28 9 10 13 21 9 24 -14 15 14 5 37 -12z m-500 -31 c12 -7 12 -13
4 -27 -6 -10 -17 -18 -24 -18 -7 0 -18 8 -24 18 -8 14 -8 20 4 27 8 5 17 10
20 10 3 0 12 -5 20 -10z m2270 -31 c23 -42 -15 -98 -55 -83 -12 5 -14 14 -9
38 14 66 42 86 64 45z m-7884 -4 c8 -19 -4 -65 -16 -65 -10 0 -30 60 -23 73 7
13 33 8 39 -8z m5198 -164 c9 -14 -4 -41 -19 -41 -18 0 -26 15 -19 34 7 17 29
21 38 7z m2211 -52 c7 -11 -22 -49 -37 -49 -12 0 -10 34 4 48 15 15 25 15 33
1z m-7275 -111 c0 -5 -4 -8 -10 -8 -5 0 -10 10 -10 23 0 18 2 19 10 7 5 -8 10
-18 10 -22z m7560 -54 c0 -16 -39 -64 -52 -64 -16 0 -8 69 9 78 21 12 43 5 43
-14z m-607 -266 c2 -7 0 -23 -4 -36 -12 -31 -56 -28 -51 3 5 25 21 45 37 45 7
0 15 -6 18 -12z m-6998 -29 c9 -28 -14 -44 -34 -24 -12 11 -12 17 -1 29 17 22
27 20 35 -5z m505 -46 c0 -19 -13 -16 -28 7 -17 28 -4 50 15 25 7 -11 13 -25
13 -32z m-304 -57 c7 -31 2 -61 -11 -60 -16 2 -39 50 -32 67 9 25 36 20 43 -7z
m-68 -96 c24 -36 30 -90 9 -90 -31 0 -49 26 -51 78 -3 60 7 63 42 12z m6567
-10 c7 -23 -10 -50 -30 -50 -20 0 -35 24 -28 48 7 29 49 30 58 2z m-1860 -20
c8 -25 -10 -50 -36 -50 -24 0 -32 16 -25 46 8 31 52 34 61 4z m1162 -15 c4
-28 -30 -70 -51 -62 -16 7 -23 66 -9 81 15 15 58 1 60 -19z m-489 -32 c-2 -22
-8 -28 -28 -28 -16 0 -26 6 -28 19 -4 21 13 36 41 36 14 0 18 -6 15 -27z
m-1103 -3 c8 -12 -16 -50 -33 -50 -22 0 -26 30 -6 45 23 17 31 18 39 5z
m-4314 -100 c22 0 38 -32 46 -92 5 -33 3 -38 -14 -38 -29 0 -52 31 -68 91 -14
53 -10 85 7 55 5 -9 18 -16 29 -16z m4805 -75 c8 -20 -13 -45 -32 -38 -14 5
-19 34 -7 46 11 12 33 7 39 -8z m-3918 -28 c4 -22 -24 -33 -43 -17 -12 10 -13
16 -4 27 16 18 43 13 47 -10z m6182 -57 c0 -5 -5 -10 -11 -10 -5 0 -7 5 -4 10
3 6 8 10 11 10 2 0 4 -4 4 -10z m-5880 -196 c0 -8 -5 -12 -10 -9 -6 4 -8 11
-5 16 9 14 15 11 15 -7z m3955 -14 c0 -18 -6 -26 -23 -28 -13 -2 -25 3 -28 12
-10 26 4 48 28 44 17 -2 23 -10 23 -28z m-4455 -46 c0 -8 -4 -12 -10 -9 -5 3
-10 10 -10 16 0 5 5 9 10 9 6 0 10 -7 10 -16z m5098 -31 c-2 -10 -13 -18 -26
-19 -23 -1 -31 21 -9 29 25 11 38 7 35 -10z m-1330 -27 c6 -27 -25 -48 -49
-35 -23 12 -24 23 -3 44 21 20 48 16 52 -9z m1592 -61 c0 -8 -9 -15 -20 -15
-20 0 -26 11 -13 23 12 13 33 7 33 -8z m1059 -31 c10 -9 -45 -54 -66 -54 -29
0 -29 17 -1 47 19 21 48 24 67 7z m-3403 -89 c11 -43 -34 -73 -64 -43 -16 16
-15 33 4 52 24 24 53 20 60 -9z m-2826 -21 c0 -26 -17 -33 -26 -9 -8 20 3 48
16 40 5 -3 10 -17 10 -31z m4121 -39 c0 -5 -14 -13 -30 -16 -17 -4 -31 -5 -31
-4 0 2 3 11 6 20 7 17 54 18 55 0z m-3811 -10 c0 -8 6 -15 14 -15 20 0 31 -19
18 -32 -20 -20 -72 28 -56 53 8 14 24 11 24 -6z m5310 -20 c0 -8 -7 -15 -15
-15 -16 0 -20 12 -8 23 11 12 23 8 23 -8z m-1365 -45 c4 -6 1 -18 -6 -26 -11
-14 -13 -14 -21 0 -15 26 12 51 27 26z m-3341 -15 c6 -17 -2 -45 -14 -45 -15
0 -22 19 -15 40 8 24 21 26 29 5z m-696 -42 c3 -17 -2 -23 -16 -23 -18 0 -32
18 -32 42 0 21 45 3 48 -19z m4462 8 c0 -14 -18 -23 -31 -15 -8 4 -7 9 2 15
18 11 29 11 29 0z m-5185 -38 c5 -20 3 -23 -19 -23 -30 0 -29 0 -16 36 11 29
23 24 35 -13z m3890 7 c3 -5 1 -10 -4 -10 -6 0 -11 5 -11 10 0 6 2 10 4 10 3
0 8 -4 11 -10z m-2805 -45 c0 -8 -4 -15 -8 -15 -13 0 -32 23 -32 37 0 11 5 11
20 3 11 -6 20 -17 20 -25z m5370 -126 c0 -12 -7 -19 -20 -19 -22 0 -26 20 -8
38 15 15 28 6 28 -19z m-6307 -50 c-7 -27 -18 -24 -21 6 -1 17 2 23 12 19 8
-3 12 -14 9 -25z m-94 -49 c16 -40 17 -63 3 -68 -8 -2 -16 5 -19 17 -3 12 -9
22 -14 22 -5 1 -15 2 -21 3 -14 1 -23 39 -14 61 7 21 53 -4 65 -35z m4821 25
c0 -18 -5 -25 -20 -25 -20 0 -28 28 -13 43 15 16 33 6 33 -18z m-3440 -31 c0
-16 -16 -19 -25 -4 -8 13 4 32 16 25 5 -4 9 -13 9 -21z m-900 -54 c9 -16 8
-20 -5 -20 -8 0 -15 9 -15 20 0 11 2 20 5 20 2 0 9 -9 15 -20z m-332 -104 c3
-12 -1 -17 -10 -14 -7 3 -15 13 -16 22 -3 12 1 17 10 14 7 -3 15 -13 16 -22z
m1342 -1 c7 -9 11 -18 8 -20 -9 -10 -38 7 -38 21 0 18 14 18 30 -1z m1520 -40
c0 -9 -9 -15 -21 -15 -18 0 -19 2 -9 15 7 8 16 15 21 15 5 0 9 -7 9 -15z
m-2470 -125 c0 -5 -7 -10 -15 -10 -8 0 -15 5 -15 10 0 6 7 10 15 10 8 0 15 -4
15 -10z m3518 -8 c3 -9 -2 -13 -14 -10 -9 1 -19 9 -22 16 -3 9 2 13 14 10 9
-1 19 -9 22 -16z m-2950 -129 c-16 -20 -28 -15 -28 12 0 22 2 24 19 13 15 -9
17 -15 9 -25z m-481 -55 c-3 -7 -5 -2 -5 12 0 14 2 19 5 13 2 -7 2 -19 0 -25z
m2362 -32 c9 -10 8 -16 -4 -26 -19 -16 -41 1 -32 24 8 20 21 20 36 2z m761 4
c0 -5 -8 -10 -17 -10 -15 0 -16 2 -3 10 19 12 20 12 20 0z m290 -70 c0 -5 -4
-10 -10 -10 -5 0 -10 5 -10 10 0 6 5 10 10 10 6 0 10 -4 10 -10z m-2540 -266
c0 -14 -3 -14 -15 -4 -8 7 -15 14 -15 16 0 2 7 4 15 4 8 0 15 -7 15 -16z"/>
<path d="M3747 8633 c-10 -9 -9 -23 2 -23 5 0 11 7 15 15 5 15 -5 20 -17 8z"/>
<path d="M3570 8073 c0 -5 5 -15 10 -23 8 -12 10 -11 10 8 0 12 -4 22 -10 22
-5 0 -10 -3 -10 -7z"/>
<path d="M6865 7520 c-3 -5 -1 -10 4 -10 6 0 11 5 11 10 0 6 -2 10 -4 10 -3 0
-8 -4 -11 -10z"/>
<path d="M7100 6926 c0 -1 5 -17 11 -35 l11 -32 16 22 c14 20 14 23 -3 35 -18
13 -35 18 -35 10z"/>
<path d="M7897 6284 c-12 -13 -8 -22 14 -27 15 -4 19 -1 17 10 -3 18 -21 27
-31 17z"/>
<path d="M8918 6830 c-3 -20 0 -30 9 -30 7 0 13 11 13 24 0 36 -17 41 -22 6z"/>
<path d="M3893 9283 c1 -22 71 -30 95 -11 8 7 17 12 19 11 7 -6 23 -2 23 5 0
4 -31 9 -69 10 -62 3 -70 1 -68 -15z"/>
<path d="M2960 8869 c0 -5 5 -7 10 -4 6 3 10 8 10 11 0 2 -4 4 -10 4 -5 0 -10
-5 -10 -11z"/>
<path d="M2870 8813 c0 -5 4 -14 9 -21 7 -11 9 -11 14 1 3 8 3 18 0 21 -9 8
-23 7 -23 -1z"/>
</g>
</svg>
